<?xml version="1.0" encoding="UTF-8" standalone="no"?>
<svg
   xmlns:dc="http://purl.org/dc/elements/1.1/"
   xmlns:cc="http://creativecommons.org/ns#"
   xmlns:rdf="http://www.w3.org/1999/02/22-rdf-syntax-ns#"
   xmlns:svg="http://www.w3.org/2000/svg"
   xmlns="http://www.w3.org/2000/svg"
   xmlns:xlink="http://www.w3.org/1999/xlink"
   xmlns:sodipodi="http://sodipodi.sourceforge.net/DTD/sodipodi-0.dtd"
   xmlns:inkscape="http://www.inkscape.org/namespaces/inkscape"
   data-v-fde0c5aa=""
   viewBox="0 0 220 30.062523"
   class="iconLeft"
   version="1.1"
   id="svg25"
   sodipodi:docname="logo.svg"
   width="220"
   height="30.062523"
   inkscape:version="0.92.5 (2060ec1f9f, 2020-04-08)">
  <metadata
     id="metadata29">
    <rdf:RDF>
      <cc:Work
         rdf:about="">
        <dc:format>image/svg+xml</dc:format>
        <dc:type
           rdf:resource="http://purl.org/dc/dcmitype/StillImage" />
        <dc:title></dc:title>
      </cc:Work>
    </rdf:RDF>
  </metadata>
  <sodipodi:namedview
     pagecolor="#ffffff"
     bordercolor="#666666"
     borderopacity="1"
     objecttolerance="10"
     gridtolerance="10"
     guidetolerance="10"
     inkscape:pageopacity="0"
     inkscape:pageshadow="2"
     inkscape:window-width="640"
     inkscape:window-height="480"
     id="namedview27"
     showgrid="false"
     fit-margin-top="0"
     fit-margin-left="0"
     fit-margin-right="0"
     fit-margin-bottom="0"
     inkscape:zoom="0.78666667"
     inkscape:cx="110"
     inkscape:cy="15.031255"
     inkscape:window-x="0"
     inkscape:window-y="27"
     inkscape:window-maximized="0"
     inkscape:current-layer="svg25" />
  <!---->
  <defs
     data-v-fde0c5aa=""
     id="defs2">
    <!---->
    <linearGradient
       inkscape:collect="always"
       xlink:href="#0ba7fe2d-9473-41dc-8809-644d8ec93527"
       id="linearGradient31"
       gradientTransform="scale(1.3736882,0.72796724)"
       x1="48.482616"
       y1="63.876499"
       x2="162.77348"
       y2="63.876499"
       gradientUnits="userSpaceOnUse" />
    <linearGradient
       inkscape:collect="always"
       xlink:href="#0ba7fe2d-9473-41dc-8809-644d8ec93527"
       id="linearGradient33"
       gradientTransform="scale(1.4685735,0.68093291)"
       x1="21.994133"
       y1="177.25682"
       x2="152.25661"
       y2="177.25682"
       gradientUnits="userSpaceOnUse" />
    <linearGradient
       inkscape:collect="always"
       xlink:href="#0ba7fe2d-9473-41dc-8809-644d8ec93527"
       id="linearGradient35"
       gradientTransform="scale(1.0836697,0.92279038)"
       x1="29.806129"
       y1="50.39064"
       x2="206.33594"
       y2="50.39064"
       gradientUnits="userSpaceOnUse" />
  </defs>
  <defs
     data-v-fde0c5aa=""
     id="defs6">
    <!---->
  </defs>
  <g
     data-v-fde0c5aa=""
     id="dddd056a-2392-47cf-9f64-9f8076de2c87"
     transform="matrix(1.4911966,0,0,1.4911966,45.992271,-0.31314296)"
     style="fill:#000000">
    <path
       d="M 1.55,13.78 H 2.38 V 9.66 h 1.85 l 2.39,4.12 H 7.57 L 5.14,9.62 C 6.48,9.34 7.36,8.5 7.36,7.01 7.36,5.21 6.1,4.54 4.27,4.54 H 1.55 Z M 2.38,8.96 V 5.21 H 4.1 c 1.56,0 2.42,0.49 2.42,1.8 0,1.32 -0.86,1.95 -2.42,1.95 z m 10.64,5 c 1.16,0 1.95,-0.42 2.58,-0.84 l -0.31,-0.59 c -0.65,0.45 -1.32,0.73 -2.19,0.73 -1.65,0 -2.8,-1.19 -2.81,-2.9 h 5.56 c 0.03,-0.18 0.03,-0.38 0.03,-0.57 0,-2.05 -1.17,-3.32 -3.04,-3.32 -1.74,0 -3.4,1.44 -3.4,3.75 0,2.34 1.62,3.74 3.58,3.74 z M 10.28,9.73 c 0.18,-1.61 1.33,-2.6 2.56,-2.6 1.38,0 2.27,0.91 2.27,2.6 z m 10.08,4.23 c 0.99,0 2,-0.59 2.77,-1.23 h 0.04 l 0.07,1.05 h 0.67 V 9.27 c 0,-1.6 -0.8,-2.8 -2.62,-2.8 -1.19,0 -2.17,0.61 -2.66,1.03 l 0.34,0.61 c 0.49,-0.44 1.25,-0.94 2.2,-0.94 1.45,0 1.92,1.02 1.93,2.11 -3.6,0.34 -5.05,1.09 -5.05,2.72 0,1.3 1.09,1.96 2.31,1.96 z m 0.18,-0.67 c -0.86,0 -1.7,-0.4 -1.7,-1.35 0,-1.09 1.03,-1.76 4.26,-2.07 v 2.18 c -0.88,0.82 -1.74,1.24 -2.56,1.24 z m 9.52,0.67 c 1.03,0 1.93,-0.45 2.64,-1.15 l -0.37,-0.53 c -0.62,0.56 -1.35,0.99 -2.23,0.99 -1.72,0 -2.87,-1.23 -2.87,-3.05 0,-1.82 1.18,-3.07 2.88,-3.07 0.79,0 1.42,0.37 1.99,0.94 L 32.54,7.55 C 31.98,6.97 31.21,6.47 30.1,6.47 c -2.03,0 -3.71,1.36 -3.71,3.75 0,2.37 1.57,3.74 3.67,3.74 z m 9.07,0 c 0.69,0 1.48,-0.2 2.1,-0.45 l -0.21,-0.6 c -0.5,0.22 -1.05,0.35 -1.74,0.35 -1.42,0 -1.82,-0.79 -1.82,-2.14 v -3.8 h 3.5 V 6.64 h -3.5 V 3.89 l -0.78,0.65 v 2.1 h -2 v 0.68 h 1.97 v 3.77 c 0,1.71 0.59,2.87 2.48,2.87 z m 12.81,-0.18 h 2.59 c 2.07,0 3.44,-0.9 3.44,-2.71 0,-1.27 -0.82,-2.03 -2.18,-2.22 V 8.79 c 1.08,-0.26 1.62,-1.08 1.62,-2.01 0,-1.57 -1.2,-2.24 -3.08,-2.24 H 51.94 Z M 52.79,8.57 V 5.21 h 1.39 c 1.58,0 2.41,0.47 2.41,1.59 0,1.14 -0.7,1.77 -2.48,1.77 z m 0,4.53 V 9.21 h 1.57 c 1.78,0 2.79,0.58 2.79,1.85 0,1.41 -1.05,2.04 -2.79,2.04 z m 11.75,0.86 c 0.7,0 1.16,-0.21 1.74,-0.45 l -0.23,-0.63 c -0.53,0.27 -0.94,0.39 -1.36,0.39 -0.91,0 -1.41,-0.52 -1.41,-1.64 V 3.57 h -3.25 v 0.69 h 2.44 v 7.3 c 0,1.63 0.74,2.4 2.07,2.4 z m 6.86,0 c 1.78,0 3.29,-1.37 3.29,-3.74 0,-2.39 -1.51,-3.75 -3.29,-3.75 -1.78,0 -3.29,1.36 -3.29,3.75 0,2.37 1.51,3.74 3.29,3.74 z m 0,-0.69 c -1.43,0 -2.45,-1.23 -2.45,-3.05 0,-1.82 1.02,-3.07 2.45,-3.07 1.43,0 2.45,1.25 2.45,3.07 0,1.82 -1.02,3.05 -2.45,3.05 z m 8.18,3.74 c 1.87,0 3.01,-1.11 3.01,-3.23 V 6.64 H 81.93 L 81.84,7.45 H 81.82 C 81.19,6.86 80.47,6.47 79.66,6.47 c -1.68,0 -3.15,1.4 -3.15,3.65 0,2.33 1.19,3.63 2.94,3.63 0.91,0 1.79,-0.55 2.35,-1.18 l -0.01,1.12 c -0.02,2.09 -0.81,2.65 -2.21,2.65 -0.73,0 -1.53,-0.21 -2.24,-1.25 l -0.51,0.44 c 0.91,1.19 1.82,1.48 2.75,1.48 z m 0.02,-3.95 c -1.41,0 -2.25,-1.17 -2.25,-2.95 0,-1.68 1.08,-2.94 2.39,-2.94 0.68,0 1.33,0.28 2.05,0.99 v 3.67 c -0.72,0.78 -1.46,1.23 -2.19,1.23 z m 13.37,0.72 h 0.84 l 1.01,-3.07 h 3.54 l 1,3.07 h 0.87 L 97.05,4.54 h -0.9 z m 2.1,-3.76 0.52,-1.61 c 0.35,-1.07 0.66,-2.04 0.98,-3.16 h 0.06 c 0.31,1.12 0.61,2.09 0.98,3.16 l 0.52,1.61 z m 7.14,6.63 h 0.82 v -2.26 l -0.02,-1.43 c 0.66,0.62 1.53,1 2.16,1 1.66,0 3.12,-1.43 3.12,-3.85 0,-2.23 -0.95,-3.64 -2.83,-3.64 -0.87,0 -1.79,0.49 -2.45,1.16 h -0.04 l -0.08,-0.99 h -0.68 z m 2.86,-3.39 c -0.5,0 -1.32,-0.3 -2.04,-1.01 V 8.41 c 0.79,-0.84 1.61,-1.24 2.26,-1.24 1.54,0 2.16,1.23 2.16,2.94 0,1.87 -0.99,3.15 -2.38,3.15 z m 5.54,3.39 h 0.82 v -2.26 l -0.02,-1.43 c 0.66,0.62 1.53,1 2.16,1 1.66,0 3.12,-1.43 3.12,-3.85 0,-2.23 -0.95,-3.64 -2.83,-3.64 -0.87,0 -1.79,0.49 -2.45,1.16 h -0.04 l -0.08,-0.99 h -0.68 z m 2.86,-3.39 c -0.5,0 -1.32,-0.3 -2.04,-1.01 V 8.41 c 0.79,-0.84 1.61,-1.24 2.26,-1.24 1.54,0 2.16,1.23 2.16,2.94 0,1.87 -0.99,3.15 -2.38,3.15 z"
       id="path8"
       inkscape:connector-curvature="0" />
  </g>
  <defs
     data-v-fde0c5aa=""
     id="defs16">
    <linearGradient
       data-v-fde0c5aa=""
       gradientTransform="rotate(25)"
       id="0ba7fe2d-9473-41dc-8809-644d8ec93527"
       x1="0"
       y1="0"
       x2="1"
       y2="0">
      <stop
         data-v-fde0c5aa=""
         offset="0%"
         stop-color="#01648B"
         stop-opacity="1"
         id="stop11" />
      <stop
         data-v-fde0c5aa=""
         offset="100%"
         stop-color="#5BD0A4"
         stop-opacity="1"
         id="stop13" />
    </linearGradient>
  </defs>
  <g
     data-v-fde0c5aa=""
     id="39c109be-7c8e-4fa6-8bbc-a9798ec034a8"
     transform="matrix(0.18454587,0,0,0.18454587,-5.9608316,-8.581383)"
     style="fill:url(#linearGradient35);stroke:none">
    <style
       id="style18" />
    <path
       d="m 84.5,82.1 c 9,0 16.4,-6.7 17.6,-15.4 h 30.4 l 13,18.8 c 0.5,0.7 1.2,1 2,1 h 73.7 c 1.3,0 2.4,-1.1 2.4,-2.4 0,-1.3 -1.1,-2.4 -2.4,-2.4 h -72.5 l -13,-18.8 c -0.5,-0.7 -1.2,-1 -2,-1 H 102 c -1.2,-8.7 -8.6,-15.4 -17.6,-15.4 -9.8,0 -17.8,8 -17.8,17.8 0,9.8 8.1,17.8 17.9,17.8 z m 0,-30.7 c 7.1,0 12.9,5.8 12.9,12.9 0,7.1 -5.8,12.9 -12.9,12.9 -7.1,0 -12.9,-5.8 -12.9,-12.9 0,-7.1 5.7,-12.9 12.9,-12.9 z m 136.7,58.1 h -76.7 c -1.2,-8.7 -8.6,-15.4 -17.6,-15.4 -9.8,0 -17.8,8 -17.8,17.8 0,9.8 8,17.8 17.8,17.8 9,0 16.4,-6.7 17.6,-15.4 h 76.7 c 1.3,0 2.4,-1.1 2.4,-2.4 0,-1.3 -1.1,-2.4 -2.4,-2.4 z m -94.3,15.4 c -7.1,0 -12.9,-5.8 -12.9,-12.9 0,-7.1 5.8,-13 12.9,-13 7.1,0 12.9,5.8 12.9,12.9 0,7.2 -5.8,13 -12.9,13 z"
       id="path20"
       inkscape:connector-curvature="0"
       style="fill:url(#linearGradient31)" />
    <path
       d="m 221.2,140.3 h -66.9 c -0.8,0 -1.6,0.4 -2.1,1.1 l -9.4,15 h -41.2 l -10.2,-19 c -0.4,-0.8 -1.2,-1.3 -2.1,-1.3 H 67.7 c -1.2,-8.7 -8.6,-15.4 -17.6,-15.4 -9.8,0 -17.8,8 -17.8,17.8 0,9.8 8,17.8 17.8,17.8 9,0 16.4,-6.7 17.6,-15.4 h 20.1 l 10.2,19 c 0.4,0.8 1.2,1.3 2.1,1.3 h 44 c 0.8,0 1.6,-0.4 2.1,-1.1 l 9.4,-15 h 65.5 c 1.3,0 2.4,-1.1 2.4,-2.4 0.1,-1.3 -1,-2.4 -2.3,-2.4 z M 50.1,151.6 c -7.1,0 -12.9,-5.8 -12.9,-12.9 0,-7.1 5.8,-12.9 12.9,-12.9 7.1,0 12.9,5.8 12.9,12.9 0.1,7.1 -5.7,12.9 -12.9,12.9 z m 171.1,17 h -38.6 c -0.9,0 -1.7,0.5 -2.1,1.2 l -11.4,19.4 h -58.2 c -1.2,-8.7 -8.6,-15.4 -17.6,-15.4 -9.8,0 -17.8,8 -17.8,17.8 0,9.8 8,17.8 17.8,17.8 9,0 16.4,-6.7 17.6,-15.4 h 59.6 c 0.9,0 1.7,-0.5 2.1,-1.2 L 184,173.4 h 37.2 c 1.3,0 2.4,-1.1 2.4,-2.4 0,-1.3 -1.1,-2.4 -2.4,-2.4 z m -127.9,36 c -7.1,0 -12.9,-5.8 -12.9,-12.9 0,-7.1 5.8,-12.9 12.9,-12.9 7.1,0 12.9,5.8 12.9,12.9 0.1,7.1 -5.7,12.9 -12.9,12.9 z"
       id="path22"
       inkscape:connector-curvature="0"
       style="fill:url(#linearGradient33)" />
  </g>
  <!---->
</svg>
